<?xml version="1.0" encoding="UTF-8"?>
<svg width="48" height="48" version="1.1" viewBox="0 0 48 48" xmlns="http://www.w3.org/2000/svg" xmlns:xlink="http://www.w3.org/1999/xlink">
 <defs>
  <linearGradient id="linearGradient835" x1=".68252" x2="2.9556" y1="1.3097" y2="1.3097" gradientTransform="scale(1.3743 .72763)" gradientUnits="userSpaceOnUse" xlink:href="#SvgjsLinearGradient1598"/>
  <linearGradient id="linearGradient839" x1=".65213" x2="2.8241" y1="2.8767" y2="2.8767" gradientTransform="scale(1.4384 .69524)" gradientUnits="userSpaceOnUse" xlink:href="#SvgjsLinearGradient1598"/>
  <linearGradient id="linearGradient843" x1=".99336" x2="2.4273" y1="4.4816" y2="4.4816" gradientTransform="scale(1.4617 .68413)" gradientUnits="userSpaceOnUse" xlink:href="#SvgjsLinearGradient1598"/>
  <linearGradient id="linearGradient847" x1=".93349" x2="4.0424" y1=".95761" y2=".95761" gradientTransform="scale(1.0048 .99519)" gradientUnits="userSpaceOnUse" xlink:href="#SvgjsLinearGradient1598"/>
 </defs>
 <g transform="matrix(8.5714 0 0 8.5714 62.043 59.937)">
  <defs>
   <linearGradient id="SvgjsLinearGradient1598">
    <stop stop-color="#2d388a" offset="0"/>
    <stop stop-color="#00aeef" offset="1"/>
   </linearGradient>
  </defs>
  <g transform="matrix(1.7914 0 0 1.7914 -8.9187 -8.6998)" fill="url(#linearGradient847)" featureKey="41S5F6-0">
   <g fill="url(#linearGradient835)">
    <polygon points="0.938 1.855 0.938 2.607 2.499 1.705 4.062 2.605 4.062 1.854 2.498 0.953" fill="url(#linearGradient835)"/>
   </g>
   <g fill="url(#linearGradient839)">
    <polygon points="3.812 3.51 4.062 3.363 4.062 2.902 2.498 2 0.938 2.902 0.938 3.365 1.188 3.51 2.498 2.752" fill="url(#linearGradient839)"/>
   </g>
   <g fill="url(#linearGradient843)">
    <polygon points="1.452 3.672 2.104 4.047 2.499 3.818 2.896 4.047 3.548 3.672 2.498 3.066" fill="url(#linearGradient843)"/>
   </g>
  </g>
 </g>
</svg>
